<svg t="1714218459398" class="icon" viewBox="0 0 1024 1024" version="1.1" xmlns="http://www.w3.org/2000/svg" p-id="914" width="200" height="200"><path d="M807.53 1021.99c-43.47 0-95-10.73-151.89-32.24-57.44-21.72-117.15-53.14-177.47-93.39-65.85-43.94-130.48-97.2-192.09-158.31l-0.14-0.14c-61.58-61.67-115.14-126.43-159.2-192.46-40.27-60.36-71.62-120.2-93.19-177.85-44.09-117.88-41.97-212.95 5.81-260.82 5.24-5.25 10.68-10.96 16.45-17C73.72 71.02 94 49.76 117.15 33.02c30.63-22.15 60.5-32.27 91.29-30.91 45.33 1.99 87.78 28.5 129.76 81.05 54.88 68.71 76.49 120.63 70.08 168.35-6.22 46.31-37.72 77.43-68.19 107.53-3.11 3.07-6.26 6.19-9.45 9.37 0.4 8.54 9.16 55.92 138.87 185.83l0.37 0.38c45.54 46.84 85.46 82.71 118.65 106.59 45.34 32.63 63.56 32.36 66.45 32.05 3.04-3.05 6.01-6.06 8.94-9.04 29.6-30.05 60.2-61.12 106.6-67.75 24.88-3.56 50.73 0.48 79.04 12.33 17.38 7.28 35.78 17.57 55.66 31.17l0.66-0.97 33.73 26.54c53.22 41.88 80.13 84.3 82.26 129.67 1.44 30.74-8.63 60.55-30.8 91.13-16.72 23.07-37.98 43.29-56.74 61.13-6.42 6.11-12.49 11.88-18 17.4-24.69 24.72-62.09 37.11-108.8 37.12zM342.49 681.31c109.83 108.91 231.08 191.87 341.46 233.61 45.73 17.29 87.72 26.65 121.43 27.07 25.55 0.33 45.37-4.66 54.34-13.64 6.24-6.25 12.97-12.65 19.48-18.84 30.07-28.6 64.15-61.02 62.77-90.55-1.09-23.36-24.3-47.87-45.84-65.72l-6.27-5.02c-47.78-38.28-84.11-55.96-108.01-52.55-18.72 2.67-35.34 18.72-60.92 44.69-3.18 3.23-6.41 6.51-9.69 9.79-15.16 15.18-35.07 23.19-57.62 23.19h-0.64c-33.79-0.23-72.53-17.75-121.9-55.14-34.44-26.08-74.25-62.29-118.34-107.62-147.39-147.64-163.1-210.76-162.08-245.4 0.63-21.38 8.85-39.92 23.79-53.71 3.18-3.17 6.32-6.28 9.42-9.35 26.37-26.05 42.66-42.95 45.12-61.26 3.13-23.31-14.8-59.57-53.3-107.77-18.11-22.67-45.09-49.93-70.76-51.06-29.89-1.3-62.47 32.83-91.22 62.96-5.82 6.1-11.84 12.41-17.72 18.3-9.07 9.09-14.17 29.03-13.99 54.72 0.24 33.83 9.4 75.86 26.49 121.55 41.42 110.73 124.51 232.09 234 341.75z" fill="#000000" p-id="915"></path></svg>